<svg width="20" height="20" viewBox="0 0 20 20" fill="none" xmlns="http://www.w3.org/2000/svg">
<path id="Vector" d="M15.8796 19.9933C12.5313 17.5217 6.9671 13.3083 0.0462646 12.3892L3.0046 9.49583C11.4963 12.775 15.8796 19.9933 15.8796 19.9933ZM0.399598 15.3642L2.70793 13.5167C9.4446 15.1733 15.1579 20 15.1579 20C12.7521 18.6417 5.9271 15.3 0.399598 15.3642ZM2.51876 8.6625L10.2271 1.80417L11.8871 2.765L8.1496 7.00833C12.1746 10.3275 16.6413 13.8583 16.2413 19.6142C12.2779 13.9992 7.6046 9.98333 2.51876 8.6625ZM9.10793 6.88667L15.0288 0C18.1879 2.58333 19.9538 6.59417 19.9538 8.76083C19.6963 11.5292 16.9888 18.2192 16.7388 18.9575C16.5513 17.285 17.9338 14.3242 9.10793 6.88667Z" fill="#0951FE"/>
</svg>
