<svg width="20" height="20" viewBox="0 0 20 20" fill="none" xmlns="http://www.w3.org/2000/svg">
<path id="Combined shape 3868" fill-rule="evenodd" clip-rule="evenodd" d="M6.91678 6.06567C6.78286 6.15643 6.61061 6.16477 6.46863 6.08775C6.32667 6.01056 6.23798 5.86046 6.23798 5.69644V2.69483C6.23798 2.54637 6.31091 2.40785 6.43244 2.32609L9.75777 0.0745725C9.90445 -0.0250203 10.0955 -0.0250203 10.2421 0.0745725L13.5674 2.32641C13.6889 2.40818 13.7619 2.54686 13.7619 2.69483V5.69644C13.7619 5.86012 13.6732 6.01056 13.5314 6.08775C13.3892 6.16477 13.217 6.15643 13.0831 6.06567L11.545 5.02453V11.3252C11.545 12.1902 10.852 12.8943 10 12.8943C9.148 12.8943 8.45482 12.1902 8.45482 11.3252V5.02453L6.91678 6.06567ZM17.6256 4.82895C18.7967 6.46809 19.4156 8.40762 19.4156 10.4374C19.4156 15.7105 15.1917 20.0002 10 20.0002C4.80813 20.0002 0.584244 15.7105 0.584244 10.4374C0.584244 8.40762 1.20316 6.46809 2.37422 4.82895C2.50853 4.64075 2.76234 4.58973 2.95694 4.71155L5.41653 6.25128C5.51989 6.31603 5.59216 6.4215 5.61571 6.54267C5.63939 6.66385 5.6122 6.78925 5.54075 6.88933C4.85632 7.84758 4.49444 8.9816 4.49444 10.1686C4.49444 13.2515 6.96428 15.7599 10 15.7599C13.0357 15.7599 15.5056 13.2515 15.5056 10.1686C15.5056 8.9816 15.1437 7.84758 14.4592 6.88933C14.3879 6.78925 14.3609 6.66385 14.3843 6.54267C14.4079 6.4215 14.4801 6.31603 14.5836 6.25128L17.0431 4.71155C17.2375 4.58973 17.4915 4.64075 17.6256 4.82895Z" fill="#AAAAAA"/>
</svg>
