<svg width="222" height="69" viewBox="0 0 222 69" fill="none" xmlns="http://www.w3.org/2000/svg">
<path d="M17.7062 28.0293V39.4802C17.7062 39.7217 17.6155 39.9305 17.4341 40.1067L9.8086 47.5192C9.75861 47.5689 9.71935 47.6273 9.69309 47.691C9.66683 47.7548 9.65408 47.8226 9.65557 47.8906C9.65705 47.9586 9.67275 48.0255 9.70176 48.0874C9.73076 48.1493 9.77251 48.205 9.8246 48.2514L13.3533 51.4292C13.5187 51.5752 13.5 51.701 13.2973 51.8066L6.47192 55.2789C6.40685 55.3138 6.33147 55.3278 6.25722 55.3187C6.18297 55.3095 6.1139 55.2778 6.06051 55.2283C6.00711 55.1788 5.97229 55.1142 5.96134 55.0443C5.95039 54.9744 5.9639 54.9031 5.99983 54.8411C6.94935 53.1603 7.80019 51.4041 8.55235 49.5723C9.10713 48.2287 9.37651 46.7543 9.36051 45.149C9.27516 36.6998 9.25649 28.2557 9.3045 19.8167C9.30983 19.5751 9.44053 19.4543 9.69658 19.4543L38.3824 19.4091C38.6331 19.4091 38.8465 19.3235 39.0225 19.1524L44.4636 13.8761C44.661 13.6849 44.861 13.6824 45.0638 13.8686L48.6325 17.0766C48.8565 17.2779 48.8619 17.4842 48.6485 17.6956L43.4794 22.7832C43.2501 23.0096 43.0153 23.0172 42.7753 22.8058L39.4866 19.9525C39.3109 19.7997 39.079 19.7174 38.84 19.7231C38.6011 19.7287 38.3738 19.8218 38.2064 19.9827L30.8289 27.2065C30.5942 27.438 30.3088 27.5537 29.9727 27.5537H18.2023C17.8716 27.5537 17.7062 27.7123 17.7062 28.0293Z" fill="#0951FE"/>
<path d="M33.9869 43.1041L33.7697 31.3283C33.7699 31.2604 33.7978 31.1953 33.8473 31.1474L41.4649 23.4954C41.5009 23.4575 41.5478 23.431 41.5995 23.4194C41.6512 23.4078 41.7052 23.4116 41.7547 23.4303C41.8041 23.449 41.8466 23.4818 41.8765 23.5243C41.9065 23.5669 41.9226 23.6172 41.9226 23.6688L42.1243 51.1782C42.1243 51.2462 42.0965 51.3114 42.0471 51.3595C41.9976 51.4075 41.9305 51.4345 41.8606 51.4345L13.9965 51.5552C13.9438 51.5566 13.8918 51.5426 13.8473 51.515C13.8029 51.4874 13.7679 51.4475 13.7471 51.4004C13.7262 51.3533 13.7203 51.3012 13.7302 51.2509C13.7401 51.2005 13.7653 51.1542 13.8026 51.1179L21.4435 43.4433C21.4928 43.3952 21.5597 43.3681 21.6296 43.3679H33.7232C33.7585 43.3679 33.7934 43.3611 33.826 43.3477C33.8585 43.3344 33.8879 43.3148 33.9125 43.2902C33.9371 43.2656 33.9563 43.2364 33.9691 43.2045C33.9819 43.1725 33.988 43.1384 33.9869 43.1041Z" fill="#0951FE"/>
<path d="M69.016 42.0719H61.3505C61.2776 42.072 61.2064 42.093 61.1464 42.1321C61.0864 42.1712 61.0403 42.2265 61.0144 42.2908L59.8862 45.0611C59.8603 45.1254 59.8143 45.1807 59.7542 45.2198C59.6942 45.2589 59.623 45.2799 59.5501 45.28H53.797C53.7377 45.2804 53.6792 45.267 53.6267 45.241C53.5743 45.215 53.5294 45.1771 53.4962 45.1308C53.4629 45.0845 53.4423 45.0312 53.4361 44.9756C53.43 44.92 53.4385 44.8638 53.4609 44.812L62.6388 23.2312C62.6643 23.1718 62.7072 23.1204 62.7624 23.083C62.8176 23.0456 62.883 23.0237 62.9508 23.0199L67.2717 22.7557C67.3477 22.7504 67.4235 22.7681 67.4882 22.806C67.5529 22.844 67.6032 22.9004 67.6318 22.967L76.8496 44.812C76.8718 44.8632 76.8804 44.9187 76.8746 44.9737C76.8688 45.0287 76.8489 45.0816 76.8166 45.1277C76.7843 45.1738 76.7405 45.2118 76.6891 45.2383C76.6377 45.2649 76.5802 45.2792 76.5216 45.28H70.6484C70.5722 45.2804 70.4978 45.2579 70.4359 45.2159C70.3741 45.1738 70.328 45.1143 70.3043 45.046L69.3601 42.3059C69.3364 42.2376 69.2903 42.1781 69.2285 42.1361C69.1667 42.094 69.0923 42.0716 69.016 42.0719ZM62.8468 37.2334C62.834 37.2701 62.8307 37.3091 62.8372 37.3472C62.8437 37.3853 62.8597 37.4214 62.884 37.4524C62.9083 37.4834 62.9401 37.5085 62.9768 37.5256C63.0135 37.5427 63.0539 37.5512 63.0948 37.5505L67.3277 37.5354C67.3679 37.5349 67.4075 37.5255 67.4431 37.5079C67.4788 37.4904 67.5095 37.4651 67.5329 37.4342C67.5563 37.4034 67.5716 37.3677 67.5777 37.3302C67.5837 37.2927 67.5803 37.2544 67.5678 37.2183L65.4313 30.6135C65.4172 30.5616 65.3852 30.5155 65.3403 30.4826C65.2954 30.4497 65.2401 30.4319 65.1833 30.4319C65.1264 30.4319 65.0712 30.4497 65.0263 30.4826C64.9814 30.5155 64.9493 30.5616 64.9352 30.6135L62.8468 37.2334Z" fill="#0951FE"/>
<path d="M84.6819 40.048H91.0432C91.128 40.048 91.2095 40.0798 91.2695 40.1365C91.3295 40.1931 91.3632 40.2699 91.3632 40.35V44.8412C91.3632 44.9213 91.3295 44.9981 91.2695 45.0547C91.2095 45.1114 91.128 45.1432 91.0432 45.1432H78.6807C78.5958 45.1432 78.5144 45.1114 78.4543 45.0547C78.3943 44.9981 78.3606 44.9213 78.3606 44.8412V23.1171C78.3606 23.037 78.3943 22.9602 78.4543 22.9036C78.5144 22.8469 78.5958 22.8151 78.6807 22.8151L84.0417 22.7547C84.1266 22.7547 84.208 22.7865 84.2681 22.8432C84.3281 22.8998 84.3618 22.9766 84.3618 23.0567V39.7461C84.3618 39.8262 84.3955 39.903 84.4556 39.9596C84.5156 40.0162 84.597 40.048 84.6819 40.048Z" fill="#0951FE"/>
<path d="M98.6492 38.6354V44.8327C98.6492 45.0843 98.5158 45.2101 98.2491 45.2101H93.4481C93.0481 45.2101 92.848 45.0214 92.848 44.6439V23.3274C92.848 23.0456 92.9974 22.9021 93.2961 22.8971C100.994 22.7084 111.3 21.5233 110.58 31.3437C110.356 34.353 108.561 36.4515 105.195 37.6391C104.965 37.7196 104.928 37.8504 105.082 38.0316L110.796 44.727C110.837 44.7751 110.864 44.8336 110.872 44.8954C110.88 44.9572 110.87 45.0197 110.842 45.0754C110.814 45.1311 110.77 45.1777 110.715 45.2096C110.66 45.2415 110.596 45.2574 110.532 45.2554L104.61 45.1874C104.328 45.1874 104.106 45.0792 103.946 44.8628L99.0893 38.4996C98.7959 38.1121 98.6492 38.1574 98.6492 38.6354ZM98.6572 28.3017L98.6412 33.6007C98.6412 33.7248 98.6935 33.8438 98.7865 33.9316C98.8795 34.0194 99.0057 34.0687 99.1373 34.0687L101.082 34.0762C101.568 34.0773 102.05 34.001 102.5 33.8517C102.95 33.7025 103.359 33.4831 103.704 33.2063C104.049 32.9294 104.322 32.6004 104.51 32.2381C104.697 31.8758 104.793 31.4872 104.794 31.0946V30.838C104.796 30.0453 104.408 29.2843 103.715 28.7223C103.022 28.1603 102.08 27.8434 101.098 27.8413L99.1533 27.8337C99.0217 27.8337 98.8955 27.883 98.8025 27.9708C98.7095 28.0586 98.6572 28.1776 98.6572 28.3017Z" fill="#0951FE"/>
<path d="M137.26 34.5C137.26 37.615 135.948 40.6025 133.613 42.8051C131.279 45.0078 128.112 46.2452 124.81 46.2452C121.508 46.2452 118.341 45.0078 116.006 42.8051C113.671 40.6025 112.359 37.615 112.359 34.5C112.359 31.385 113.671 28.3975 116.006 26.1948C118.341 23.9922 121.508 22.7547 124.81 22.7547C128.112 22.7547 131.279 23.9922 133.613 26.1948C135.948 28.3975 137.26 31.385 137.26 34.5ZM124.883 41.0893C125.726 41.081 126.558 40.9021 127.333 40.5629C128.108 40.2237 128.81 39.7308 129.399 39.1123C129.988 38.4939 130.453 37.762 130.766 36.9584C131.08 36.1548 131.236 35.2954 131.227 34.429C131.207 32.6794 130.512 31.0082 129.295 29.7829C128.078 28.5576 126.438 27.8787 124.736 27.8955C123.894 27.9039 123.061 28.0827 122.286 28.4219C121.511 28.7612 120.809 29.2541 120.22 29.8725C119.631 30.491 119.167 31.2229 118.853 32.0265C118.539 32.83 118.383 33.6895 118.393 34.5558C118.412 36.3054 119.107 37.9767 120.324 39.202C121.541 40.4272 123.181 41.1061 124.883 41.0893Z" fill="#0951FE"/>
<path d="M148.25 36.5614L151.379 23.533C151.448 23.226 151.651 23.065 151.987 23.0499L155.748 22.8461C156.041 22.831 156.22 22.9593 156.284 23.231L159.365 36.418C159.376 36.4814 159.411 36.5389 159.463 36.5804C159.515 36.6219 159.58 36.6446 159.649 36.6446C159.717 36.6446 159.783 36.6219 159.835 36.5804C159.887 36.5389 159.921 36.4814 159.933 36.418L162.805 23.3367C162.864 23.0499 163.048 22.9039 163.357 22.8989L168.27 22.7781C168.368 22.7763 168.465 22.7958 168.553 22.8353C168.642 22.8747 168.719 22.9329 168.779 23.0053C168.84 23.0777 168.882 23.1624 168.902 23.2526C168.922 23.3429 168.919 23.4362 168.894 23.5254L162.909 44.925C162.845 45.1465 162.693 45.2572 162.453 45.2572H157.684C157.503 45.2572 157.393 45.1741 157.356 45.0081L154.051 31.4814C153.923 30.9429 153.793 30.9429 153.659 31.4814L150.419 44.7363C150.344 45.0534 150.133 45.2169 149.787 45.227L145.106 45.3251C144.887 45.3301 144.751 45.232 144.698 45.0307L138.768 23.5028C138.688 23.2008 138.811 23.0423 139.136 23.0272L144.481 22.7555C144.69 22.7454 144.815 22.836 144.858 23.0272L147.802 36.5614C147.941 37.2156 148.09 37.2156 148.25 36.5614Z" fill="#0951FE"/>
<path d="M178.017 42.1994L176.889 45.03C176.867 45.0851 176.827 45.1325 176.776 45.1661C176.724 45.1998 176.663 45.2181 176.601 45.2187H170.72C170.668 45.22 170.616 45.2089 170.57 45.1866C170.523 45.1643 170.484 45.1313 170.454 45.0908C170.425 45.0503 170.407 45.0035 170.401 44.9546C170.396 44.9058 170.404 44.8564 170.424 44.8111L179.73 22.951C179.753 22.8974 179.793 22.8515 179.845 22.8193C179.896 22.7871 179.956 22.7699 180.018 22.7699L184.363 22.7548C184.426 22.7538 184.489 22.7714 184.542 22.8052C184.595 22.8389 184.636 22.8872 184.659 22.9435L193.86 44.8186C193.879 44.863 193.885 44.9108 193.879 44.958C193.873 45.0052 193.856 45.0504 193.827 45.0897C193.799 45.1291 193.761 45.1613 193.717 45.1838C193.672 45.2062 193.623 45.2182 193.572 45.2187H187.571C187.504 45.218 187.44 45.1971 187.386 45.1591C187.333 45.121 187.294 45.0678 187.275 45.0073L186.371 42.222C186.352 42.1615 186.313 42.1083 186.26 42.0703C186.207 42.0322 186.142 42.0113 186.075 42.0106H178.305C178.243 42.0113 178.182 42.0296 178.131 42.0632C178.079 42.0969 178.04 42.1443 178.017 42.1994ZM179.842 37.1872C179.83 37.2214 179.828 37.2576 179.834 37.2929C179.84 37.3282 179.855 37.3616 179.878 37.3903C179.901 37.419 179.93 37.4423 179.964 37.4582C179.998 37.474 180.036 37.4821 180.074 37.4816L184.323 37.4892C184.36 37.4896 184.398 37.4816 184.432 37.4657C184.466 37.4498 184.496 37.4266 184.518 37.3979C184.541 37.3691 184.556 37.3358 184.562 37.3005C184.569 37.2652 184.566 37.2289 184.555 37.1948L182.442 30.439C182.429 30.3907 182.398 30.348 182.357 30.3175C182.315 30.2871 182.263 30.2705 182.21 30.2705C182.157 30.2705 182.106 30.2871 182.064 30.3175C182.022 30.348 181.992 30.3907 181.978 30.439L179.842 37.1872Z" fill="#0951FE"/>
<path d="M195.494 23.0718C195.496 22.987 195.533 22.9064 195.598 22.8471C195.662 22.7879 195.748 22.7547 195.838 22.7547L204.976 22.7925C206.438 22.8004 207.883 23.0805 209.23 23.617C210.578 24.1535 211.8 24.9358 212.828 25.9192C213.855 26.9026 214.668 28.0679 215.22 29.3485C215.771 30.6291 216.051 32 216.042 33.3828V34.6962C216.034 36.0791 215.738 37.4468 215.17 38.7213C214.603 39.9958 213.776 41.1522 212.737 42.1244C211.697 43.0966 210.466 43.8655 209.112 44.3874C207.759 44.9093 206.31 45.1738 204.848 45.1658L195.71 45.1205C195.619 45.1205 195.531 45.0863 195.467 45.0255C195.402 44.9646 195.366 44.882 195.366 44.796L195.494 23.0718ZM201.455 28.1216V39.7461C201.455 39.8322 201.491 39.9147 201.556 39.9756C201.62 40.0365 201.708 40.0707 201.799 40.0707H204.52C205.927 40.0707 207.276 39.5132 208.271 38.5209C209.266 37.5285 209.825 36.1826 209.825 34.7793V33.0884C209.825 31.6851 209.266 30.3392 208.271 29.3469C207.276 28.3545 205.927 27.797 204.52 27.797H201.799C201.708 27.797 201.62 27.8312 201.556 27.8921C201.491 27.953 201.455 28.0355 201.455 28.1216Z" fill="#0951FE"/>
</svg>
