<svg width="20" height="20" viewBox="0 0 20 20" fill="none" xmlns="http://www.w3.org/2000/svg">
<path id="Vector" fill-rule="evenodd" clip-rule="evenodd" d="M5.94102 5.26763L5.96836 4.19759L9.30547 5.22156C9.90703 5.3606 10.5117 5.3606 11.1133 5.22156L14.3008 4.1868V5.3797C14.3008 6.02637 14.3184 6.50785 14.2344 7.14954C14.1973 7.43594 14.1348 7.71362 14.0238 7.90206C14.0539 7.91658 14.0824 7.93485 14.109 7.95643C14.4531 8.23286 14.4301 8.95259 14.3523 9.35645C14.307 9.59096 14.2289 9.81842 14.1168 10.0006C13.9887 10.2082 13.8164 10.3592 13.5977 10.4049C13.5461 10.6236 13.4805 10.8411 13.4027 11.0545C13.1801 11.6634 12.8535 12.2391 12.4426 12.7251C12.5852 12.953 12.7363 13.1838 12.8898 13.4042C13.9484 14.3742 16.9742 14.5751 18.1055 15.2454C18.466 15.4592 18.7918 15.731 19.0539 16.0988C19.7074 17.0157 19.7633 17.7885 20 18.9125C19.9422 19.5675 19.5926 19.944 18.9051 20H1.09492C0.407422 19.944 0.0578125 19.5675 0 18.9125C0.236719 17.7885 0.292578 17.0157 0.946094 16.0988C1.2082 15.731 1.53398 15.4592 1.89453 15.2454C2.96875 14.6087 5.75039 14.3958 6.93516 13.5457C7.12031 13.2917 7.31172 12.9928 7.48281 12.7255L7.50117 12.6973C7.19609 12.3449 6.95703 11.9809 6.70977 11.5841C6.59844 11.4073 6.4625 11.191 6.38359 10.9636C6.31094 10.7544 6.27891 10.5481 6.25977 10.4244L6.25898 10.3958C6.05742 10.3414 5.89766 10.1961 5.77734 10.0006C5.66602 9.82008 5.58789 9.59553 5.54258 9.36309C5.46094 8.94595 5.44023 8.19634 5.80977 7.93817C5.9082 7.86927 6.025 7.84312 6.15977 7.86968C6.20039 7.87881 6.06133 7.56295 6.03906 7.47495C5.83477 6.67138 5.9207 6.07452 5.94102 5.26763ZM13.1379 7.37243C12.1395 7.73561 10.7742 7.87674 10.2 7.90579C9.62891 7.93485 7.78711 7.70324 6.75234 7.30644V9.5727L6.75 9.88939C6.74336 10.5805 6.74102 10.803 7.1957 11.5235L7.35039 11.7589C7.77656 12.3781 8.23086 12.8169 8.69023 13.097C9.18867 13.4009 9.69531 13.5187 10.1809 13.4789C10.6672 13.439 11.1352 13.2411 11.5555 12.9144C12.1855 12.425 12.8852 11.3907 13.0652 10.5718C13.1297 10.2767 13.1379 9.96577 13.1379 9.49425V7.37243ZM12.0859 13.1024C11.5547 13.6034 10.9012 13.9637 10.184 14.0214C9.28555 14.0932 8.49414 13.6819 7.84609 13.0609C7.63438 13.3436 7.41406 13.6698 7.2168 13.9321C8.22539 16.44 12.2191 16.5114 12.7852 14.0903C12.5426 13.7877 12.3062 13.4399 12.0859 13.1024ZM13.6273 8.65374V9.87238C13.8145 9.76695 13.9152 9.43116 13.9328 9.07669C13.9414 8.99368 13.9566 8.31878 13.8164 8.34576C13.7098 8.36652 13.6488 8.55911 13.6273 8.65374ZM6.26641 9.87238V8.65374C6.24453 8.55869 6.18438 8.36652 6.07734 8.34576C5.93711 8.31878 5.95234 8.99368 5.96094 9.07669C5.99453 9.40252 6.09609 9.73748 6.26641 9.87238ZM4.56133 2.64399V5.28008H4.48281C4.4293 5.28008 4.38555 5.32698 4.38555 5.38343V6.09195C4.38575 6.11929 4.39606 6.14546 4.41426 6.16479C4.43246 6.18413 4.45708 6.19509 4.48281 6.1953H4.56133V6.44351C4.46172 6.46344 4.38555 6.55724 4.38555 6.66806V6.66848C4.38555 6.79383 4.48281 6.89718 4.60078 6.89718H4.98633C5.1043 6.89718 5.20156 6.79424 5.20156 6.66848V6.66806C5.20156 6.55683 5.12539 6.46344 5.02578 6.44351V6.1953H5.1043C5.15742 6.1953 5.20156 6.14882 5.20156 6.09195V5.38343C5.20156 5.32657 5.15781 5.28008 5.1043 5.28008H5.02578V2.79715L9.08672 4.13948C9.82227 4.32501 10.5574 4.33747 11.293 4.13948L15.775 2.71788L16.1801 2.5892C16.6852 2.37005 16.559 1.85495 16.0891 1.73666L11.0195 0.128275C10.4969 -0.029865 9.97422 -0.055184 9.45117 0.128275L4.47305 1.71715C3.93203 1.85703 3.82461 2.38956 4.45469 2.60871L4.56133 2.64399Z" fill="#858585"/>
</svg>
