<svg width="22" height="22" viewBox="0 0 22 22" fill="none" xmlns="http://www.w3.org/2000/svg">
<path id="Vector" d="M8.52778 3.22222C8.52778 3.8779 8.78824 4.50672 9.25188 4.97035C9.6562 5.37467 10.1862 5.62449 10.75 5.68178V9.64761C9.89099 9.70766 9.07903 10.0756 8.4662 10.6884C7.7942 11.3604 7.41667 12.2719 7.41667 13.2222C7.41667 13.8937 7.60511 14.5457 7.9527 15.1075L5.08688 17.1545C5.04961 17.1117 5.01075 17.0701 4.97035 17.0297C4.50672 16.566 3.8779 16.3056 3.22222 16.3056C2.56655 16.3056 1.93773 16.566 1.4741 17.0297C1.01047 17.4933 0.75 18.1221 0.75 18.7778C0.75 19.4335 1.01047 20.0623 1.4741 20.5259C1.93773 20.9895 2.56655 21.25 3.22222 21.25C3.8779 21.25 4.50672 20.9895 4.97035 20.5259C5.43398 20.0623 5.69444 19.4335 5.69444 18.7778C5.69444 18.3484 5.58272 17.9304 5.37537 17.5629L8.24479 15.5133C8.31456 15.5972 8.38841 15.6782 8.4662 15.756C9.13821 16.428 10.0496 16.8056 11 16.8056C11.9504 16.8056 12.8618 16.428 13.5338 15.756C13.6116 15.6782 13.6854 15.5972 13.7552 15.5133L16.6246 17.5629C16.4173 17.9304 16.3056 18.3484 16.3056 18.7778C16.3056 19.4335 16.566 20.0623 17.0297 20.5259C17.4933 20.9895 18.1221 21.25 18.7778 21.25C19.4335 21.25 20.0623 20.9895 20.5259 20.5259C20.9895 20.0623 21.25 19.4335 21.25 18.7778C21.25 18.1221 20.9895 17.4933 20.5259 17.0297C20.0623 16.566 19.4335 16.3056 18.7778 16.3056C18.1221 16.3056 17.4933 16.566 17.0297 17.0297C16.9893 17.0701 16.9504 17.1117 16.9131 17.1545L14.0473 15.1075C14.3949 14.5457 14.5833 13.8937 14.5833 13.2222C14.5833 12.2719 14.2058 11.3604 13.5338 10.6884C12.921 10.0756 12.109 9.70766 11.25 9.64761V5.68178C11.8138 5.62449 12.3438 5.37467 12.7481 4.97035C13.2118 4.50672 13.4722 3.8779 13.4722 3.22222C13.4722 2.56655 13.2118 1.93773 12.7481 1.4741C12.2845 1.01047 11.6557 0.75 11 0.75C10.3443 0.75 9.71551 1.01047 9.25188 1.4741C8.78824 1.93773 8.52778 2.56655 8.52778 3.22222Z" fill="#858585" stroke="#858585" stroke-width="0.5" stroke-linecap="round" stroke-linejoin="round"/>
</svg>
