<svg width="24" height="26" viewBox="0 0 24 26" fill="none" xmlns="http://www.w3.org/2000/svg">
<g id="Polygon 19">
<path d="M11 24.4226C11.6188 24.7799 12.3812 24.7799 13 24.4226L22.3923 19L12 13L1.6077 19L11 24.4226Z" fill="#E4E7EB"/>
<path d="M12 1L21.3923 6.42265C22.0111 6.77992 22.3923 7.44017 22.3923 8.1547V19M12 1L2.6077 6.42265C1.98889 6.77992 1.6077 7.44017 1.6077 8.1547V19M12 1V13M22.3923 19L13 24.4226C12.3812 24.7799 11.6188 24.7799 11 24.4226L1.6077 19M22.3923 19L12 13M1.6077 19L12 13" stroke="#616E7C" stroke-width="1.5" stroke-linejoin="round"/>
</g>
</svg>
