<svg width="22" height="20" viewBox="0 0 22 20" fill="none" xmlns="http://www.w3.org/2000/svg">
<path id="Vector" d="M5.73685 9.47368C3.12077 9.47368 1.00001 7.35293 1.00001 4.73684C1.00001 2.12076 3.12077 0 5.73685 0C8.35294 0 10.4737 2.12076 10.4737 4.73684C10.4737 7.35293 8.35294 9.47368 5.73685 9.47368ZM16.7895 13.6842C14.4641 13.6842 12.579 11.7991 12.579 9.47368C12.579 7.14827 14.4641 5.26316 16.7895 5.26316C19.1149 5.26316 21 7.14827 21 9.47368C21 11.7991 19.1149 13.6842 16.7895 13.6842ZM16.7895 14.7368C19.4056 14.7368 21.5263 16.8576 21.5263 19.4737V20H12.0526V19.4737C12.0526 16.8576 14.1734 14.7368 16.7895 14.7368ZM5.73685 10.5263C8.64361 10.5263 11 12.8827 11 15.7895V20H0.473694V15.7895C0.473694 12.8827 2.83009 10.5263 5.73685 10.5263Z" fill="#858585"/>
</svg>
