<svg width="18" height="20" viewBox="0 0 18 20" fill="none" xmlns="http://www.w3.org/2000/svg">
<path id="Vector" d="M7.88504 12.093V19.5349H0.443176C0.443176 15.4248 3.77501 12.093 7.88504 12.093ZM7.88504 11.1628C4.80132 11.1628 2.30364 8.66512 2.30364 5.5814C2.30364 2.49767 4.80132 0 7.88504 0C10.9688 0 13.4664 2.49767 13.4664 5.5814C13.4664 8.66512 10.9688 11.1628 7.88504 11.1628ZM10.2986 16.5688C10.241 16.3266 10.2106 16.0739 10.2106 15.814C10.2106 15.5541 10.241 15.3014 10.2985 15.0592L9.37611 14.5266L10.3063 12.9153L11.2294 13.4483C11.5951 13.1024 12.0409 12.8404 12.5362 12.6929V11.6279H14.3967V12.6929C14.8919 12.8404 15.3377 13.1024 15.7034 13.4483L16.6265 12.9153L17.5569 14.5265L16.6343 15.0591C16.6918 15.3014 16.7222 15.5541 16.7222 15.814C16.7222 16.0738 16.6918 16.3265 16.6343 16.5687L17.5569 17.1013L16.6266 18.7126L15.7035 18.1795C15.3378 18.5255 14.892 18.7875 14.3968 18.9349V20H12.5363V18.935C12.041 18.7876 11.5952 18.5256 11.2295 18.1796L10.3064 18.7127L9.37611 17.1014L10.2986 16.5688ZM13.4664 14.8837C12.9527 14.8837 12.5362 15.3002 12.5362 15.814C12.5362 16.3277 12.9527 16.7442 13.4664 16.7442C13.9802 16.7442 14.3967 16.3277 14.3967 15.814C14.3967 15.3002 13.9802 14.8837 13.4664 14.8837Z" fill="#858585"/>
</svg>
