<svg width="22" height="22" viewBox="0 0 22 22" fill="none" xmlns="http://www.w3.org/2000/svg">
<path id="Vector" d="M16.3557 13.9431L16.5325 14.1198L16.7093 13.9431L18.0924 12.5598C20.4816 10.1706 20.4816 6.29685 18.0924 3.90758C15.7032 1.5183 11.8294 1.51831 9.44007 3.90758L9.61684 4.08436L9.44007 3.90758L8.05696 5.29071L7.88019 5.46748L8.05696 5.64426L9.44007 7.02738L9.61684 7.20416L9.79362 7.02738L11.1767 5.64426C12.6069 4.21413 14.9256 4.21413 16.3557 5.64426C17.7859 7.07439 17.7859 9.39305 16.3557 10.8232L14.9726 12.2063L14.7958 12.3831L14.9726 12.5598L16.3557 13.9431ZM13.9431 16.7093L14.1198 16.5325L13.9431 16.3557L12.5598 14.9726L12.3831 14.7958L12.2063 14.9726L10.8232 16.3557C9.39305 17.7859 7.07439 17.7859 5.64426 16.3557C4.21413 14.9256 4.21413 12.6069 5.64426 11.1767L7.02738 9.79362L7.20416 9.61684L7.02738 9.44007L5.64426 8.05696L5.46748 7.88019L5.29071 8.05696L3.90758 9.44007L4.08436 9.61684L3.90758 9.44007C1.51831 11.8294 1.5183 15.7032 3.90758 18.0924C6.29685 20.4816 10.1706 20.4816 12.5598 18.0924L13.9431 16.7093ZM13.9431 6.67383L13.7663 6.49705L13.5895 6.67383L6.67383 13.5895L6.49705 13.7663L6.67383 13.9431L8.05696 15.3262L8.23374 15.5029L8.41052 15.3262L15.3262 8.41052L15.5029 8.23374L15.3262 8.05696L13.9431 6.67383ZM4.84737 1.26478L4.60589 1.32949L4.67059 1.57097L5.68312 5.34974L5.74782 5.59122L5.9893 5.52651L7.87869 5.02025L8.12017 4.95555L8.05546 4.71407L7.04294 0.935295L6.97824 0.693814L6.73675 0.758519L4.84737 1.26478ZM14.1213 16.9798L13.8799 17.0445L13.9446 17.2859L14.957 21.0647L15.0217 21.3062L15.2632 21.2415L17.1526 20.7352L17.3941 20.6705L17.3294 20.429L16.3169 16.6502L16.2522 16.4087L16.0107 16.4734L14.1213 16.9798ZM1.57097 4.67059L1.32949 4.60589L1.26478 4.84737L0.758519 6.73675L0.693814 6.97824L0.935295 7.04294L4.71407 8.05546L4.95555 8.12017L5.02025 7.87869L5.52651 5.9893L5.59122 5.74782L5.34974 5.68312L1.57097 4.67059ZM17.2859 13.9446L17.0445 13.8799L16.9798 14.1213L16.4734 16.0107L16.4087 16.2522L16.6502 16.3169L20.429 17.3294L20.6705 17.3941L20.7352 17.1526L21.2415 15.2632L21.3062 15.0217L21.0647 14.957L17.2859 13.9446Z" fill="#858585" stroke="#858585" stroke-width="0.5"/>
</svg>
